<?xml version="1.0" encoding="UTF-8"?>
<svg width="114px" height="82px" viewBox="0 0 114 82" version="1.1" xmlns="http://www.w3.org/2000/svg" xmlns:xlink="http://www.w3.org/1999/xlink">
    <!-- Generator: Sketch 58 (84663) - https://sketch.com -->
    <title>ATC</title>
    <desc>Created with Sketch.</desc>
    <g id="ATC" stroke="none" stroke-width="1" fill="none" fill-rule="evenodd">
        <g id="noun_Flight_1528765" transform="translate(17.000000, 1.000000)" fill="#0B3766" fill-rule="nonzero">
            <path d="M8.18532335,46.1916504 C5.35734809,45.4630026 2.38802602,46.6918802 0.904419685,49.2049105 C-0.0228642082,50.8108669 -0.24852471,52.7270008 0.280342227,54.5040921 C0.892148183,56.2344053 2.163108,57.6534232 3.81678115,58.4525019 L15.2582012,63.647778 C16.1874968,64.0560407 16.9297747,64.7975523 17.3384594,65.7258884 L22.5391049,77.1554957 C23.3390094,78.8074615 24.7594939,80.0771091 26.4915954,80.6882834 L28.4678407,81 C29.6418383,80.9967501 30.7926758,80.6734112 31.7962538,80.0648503 L31.7962538,80.0648503 C34.3118814,78.5827757 35.5420291,75.6165193 34.8126282,72.7914638 L32.3163184,63.5438724 L47.3981902,49.8283437 L57.3834296,68.3235264 C58.9344362,71.1251065 61.7027695,73.0455753 64.872359,73.5188025 L66.3285398,73.5188025 C69.5163823,73.5462012 72.5296495,72.0668937 74.4555128,69.5290162 C76.3813761,66.9911386 76.9932417,63.6932933 76.1057533,60.6345179 L67.7847205,31.3331609 L77.1458824,22.8129082 C80.5088836,19.3976964 81.792548,14.4496231 80.5133316,9.83257969 C79.2341153,5.21553627 75.5863615,1.63096145 70.9441439,0.429129908 C66.3019262,-0.772701631 61.3705081,0.590796914 58.007507,4.00600883 L49.5824613,13.2536002 L20.2508209,4.94115852 C16.6967708,3.98055024 12.8991715,4.96848732 10.2655815,7.53879654 C7.98469254,9.78836393 6.93776663,13.003369 7.45723299,16.1629548 C7.93094924,19.3292719 9.85340292,22.094747 12.6578785,23.6441523 L31.1721764,33.6190824 L17.4424723,48.6853829 L8.18532335,46.1916504 Z M72.0492498,61.8813841 C72.6777466,63.959549 72.0732512,66.2140018 70.4890562,67.7000933 C69.2037772,69.0470092 67.3336444,69.6697432 65.4964365,69.3625816 C63.595338,69.16751 61.9173085,68.0369841 61.0238814,66.3493215 L50.6225904,46.9189891 L64.3522945,34.554232 L72.0492498,61.8813841 Z M14.6341237,20.0074591 C12.9447169,19.1149544 11.8130226,17.4386574 11.6177494,15.5395217 C11.3102703,13.7042106 11.9336479,11.8360086 13.2819559,10.5520567 C14.7695833,8.96949719 17.0263661,8.36562591 19.1066789,8.99347384 L46.4620741,16.6824824 L34.0845378,30.3980112 L14.6341237,20.0074591 Z M19.7307563,52.4259817 L61.0238814,6.8114579 C62.7813941,5.10612034 65.1267595,4.13919109 67.5766947,4.10991435 C70.058448,4.1337706 72.4382418,5.09956366 74.2335209,6.8114579 C77.7469632,10.4697892 77.7469632,16.2452223 74.2335209,19.9035536 L28.5718536,61.257951 C28.0094019,61.790935 27.7718953,62.5818063 27.9477762,63.3360614 L30.7561247,73.9344246 C30.9740846,74.9313385 30.5620661,75.9603214 29.7159956,76.5320626 C29.1107657,76.8599647 28.400061,76.9346985 27.7397503,76.7398736 C27.1195105,76.5568224 26.6197775,76.0960066 26.3875825,75.4930074 L21.0829241,63.9594945 C20.2397023,62.1813415 18.8064114,60.7495304 17.0264207,59.9071792 L5.4809877,54.6079976 C4.87736531,54.3760424 4.41607325,53.8768253 4.23283279,53.2572259 C4.03780655,52.5975969 4.11261756,51.887626 4.44085861,51.283021 C4.93105102,50.613569 5.69265812,50.1951176 6.5211168,50.1400602 L7.04118135,50.1400602 L17.6504981,53.0494148 C18.4055327,53.2251141 19.1972215,52.9878527 19.7307563,52.4259817 Z" id="Shape"></path>
        </g>
    </g>
</svg>