<?xml version="1.0" encoding="UTF-8"?>
<svg width="114px" height="82px" viewBox="0 0 114 82" version="1.1" xmlns="http://www.w3.org/2000/svg" xmlns:xlink="http://www.w3.org/1999/xlink">
    <!-- Generator: Sketch 58 (84663) - https://sketch.com -->
    <title>clienti Over</title>
    <desc>Created with Sketch.</desc>
    <g id="clienti-Over" stroke="none" stroke-width="1" fill="none" fill-rule="evenodd">
        <g id="Group-9" transform="translate(3.000000, 3.000000)" stroke="#666666" stroke-width="4">
            <path d="M83,38 L101.562753,40.0371154 C105.670751,40.0371154 109,43.4576923 109,47.6753462 L109,55.1828462 C109.008654,62.09 104.700084,67.9665385 98.689135,70.1216923 C97.1080882,70.6890385 95.4094223,70.9974615 93.6401851,71 L93.6203756,71" id="Stroke-1" stroke-linecap="round"></path>
            <path d="M44.5,8 C54.1648083,8 62,16.0584184 62,26.0006229 C62,35.9415816 54.1648083,44 44.5,44 C34.8351917,44 27,35.9415816 27,26.0006229 C27,16.0584184 34.8351917,8 44.5,8 Z" id="Stroke-3"></path>
            <path d="M61.7800134,44 L80.5005238,46.0368049 C84.6418722,46.0368049 88,49.4573838 88,53.6751367 L88,61.1818596 C88.0110011,69.9069052 81.0757111,76.9887192 72.5103158,77 L72.4895111,77 L15.4896752,77 C6.9291751,76.9937329 -0.00611496765,69.9219462 0,61.2031677 L0,61.191887 L0,53.6964448 C0,49.4774385 3.35689493,46.0568596 7.49946717,46.0568596 L26.1698016,44.0200547" id="Stroke-5" stroke-linecap="round"></path>
            <path d="M53,3.04085226 C55.7641268,1.12044374 59.0956207,0 62.6821914,0 C72.24638,0 80,7.97253038 80,17.8075365 C80,26.030287 74.5814056,32.9513999 67.2151686,35" id="Stroke-7" stroke-linecap="round"></path>
        </g>
    </g>
</svg>