<?xml version="1.0" encoding="UTF-8"?>
<svg width="114px" height="82px" viewBox="0 0 114 82" version="1.1" xmlns="http://www.w3.org/2000/svg" xmlns:xlink="http://www.w3.org/1999/xlink">
    <!-- Generator: Sketch 58 (84663) - https://sketch.com -->
    <title>Job Perf</title>
    <desc>Created with Sketch.</desc>
    <g id="Job-Perf" stroke="none" stroke-width="1" fill="none" fill-rule="evenodd">
        <path d="M30.5,38 C36.298885,38 41,42.7007441 41,48.5003634 C41,54.2992559 36.298885,59 30.5,59 C24.701115,59 20,54.2992559 20,48.5003634 C20,42.7007441 24.701115,38 30.5,38 Z" id="Stroke-3" stroke="#0B3766" stroke-width="4"></path>
        <path d="M57.5,30 C63.298885,30 68,34.7007441 68,40.5003634 C68,46.2992559 63.298885,51 57.5,51 C51.701115,51 47,46.2992559 47,40.5003634 C47,34.7007441 51.701115,30 57.5,30 Z" id="Stroke-3-Copy" stroke="#0B3766" stroke-width="4"></path>
        <path d="M86.5,38 C92.298885,38 97,42.7007441 97,48.5003634 C97,54.2992559 92.298885,59 86.5,59 C80.701115,59 76,54.2992559 76,48.5003634 C76,42.7007441 80.701115,38 86.5,38 Z" id="Stroke-3-Copy-2" stroke="#0B3766" stroke-width="4"></path>
        <path d="M19.4639737,59.0121544 L51.5684913,60.2344272 C54.0156518,60.2344272 56,62.3075053 56,64.8637192 L56,69.4132483 C56.0065007,74.7011547 51.9083747,78.9931632 46.8470048,79 L13.1529899,79 C8.09451256,78.9962018 3.99638661,74.7102704 4,69.4261623 L4,64.8766332 C4,62.3196597 5.98361973,60.2465816 8.43150333,60.2465816 L19.4639737,59.0121544 Z M96.5063716,59 L107.568491,60.2344272 C110.015652,60.2344272 112,62.3075053 112,64.8637192 L112,69.4132483 C112.006501,74.7011547 107.908375,78.9931632 102.847005,79 L69.1529899,79 C64.0945126,78.9962018 59.9963866,74.7102704 60,69.4261623 L60,64.8766332 C60,62.3196597 61.9836197,60.2465816 64.4315033,60.2465816 L75.4639737,59.0121544 L96.5063716,59 Z" id="Stroke-6" stroke="#0B3766" stroke-width="4" stroke-linecap="round"></path>
        <path d="M67.5063716,53 L78.5684913,54.2344272 C81.0156518,54.2344272 83,56.3075053 83,58.8637192 L83,63.4132483 C83.0065007,68.7011547 78.9083747,72.9931632 73.8470048,73 L73.8347111,73 L40.1529899,73 C35.0945126,72.9962018 30.9963866,68.7102704 31,63.4261623 L31,63.4193254 L31,58.8766332 C31,56.3196597 32.9836197,54.2465816 35.4315033,54.2465816 L46.4639737,53.0121544" id="Stroke-5-Copy" stroke="#0B3766" stroke-width="4" fill="#FFFFFF" stroke-linecap="round"></path>
        <path d="M63.1774938,12.0096125 C63.0464813,11.6060979 62.6706771,11.3331062 62.2461104,11.3331062 L58.4011188,11.3331062 L57.2135854,7.67650625 C57.0825729,7.27299167 56.7067688,7 56.2822021,7 C55.8576354,7 55.4818313,7.27299167 55.3508188,7.67650625 L54.1622083,11.3331062 L50.3172167,11.3331062 C49.89265,11.3331062 49.5168458,11.6060979 49.3858333,12.0096125 C49.2548208,12.4131271 49.3982688,12.8549271 49.7415646,13.1045167 L52.8521813,15.3645312 L51.66455,19.0211312 C51.5335375,19.4246458 51.6769854,19.8664458 52.0202813,20.1160354 C52.3609333,20.3629812 52.8246667,20.3675833 53.1715854,20.1160354 L56.2822021,17.8560208 L59.3918396,20.1160354 C59.7341563,20.365625 60.1988688,20.365625 60.5431438,20.1160354 C60.8864396,19.8669354 61.0298875,19.4246458 60.898875,19.0211312 L59.7112438,15.3645312 L62.8218604,13.1045167 C63.1650583,12.8549271 63.3085063,12.4131271 63.1774938,12.0096125 Z M57.6286542,15.2933458 L58.1048229,16.7597458 L56.8579521,15.8532333 C56.5156354,15.6036437 56.0509229,15.6036437 55.7066479,15.8532333 L54.4578188,16.7602354 L54.9349667,15.2934437 C55.0659792,14.8899292 54.9225313,14.4481292 54.5792354,14.1985396 L53.3304063,13.2915375 L54.8737688,13.2915375 C55.2983354,13.2915375 55.6741396,13.0185458 55.8051521,12.6150312 L56.2823,11.14775 L56.7584688,12.6150312 C56.8894813,13.0185458 57.2652854,13.2915375 57.6898521,13.2915375 L59.2332146,13.2915375 L57.9843854,14.1985396 C57.6409917,14.4480312 57.4976417,14.8897333 57.6286542,15.2933458 Z" id="Shape" fill="#0B3766" fill-rule="nonzero"></path>
        <path d="M78.0438875,20.177625 C77.912875,19.7741104 77.5370708,19.5011187 77.1125042,19.5011187 L73.2684917,19.5011187 L72.0798813,15.8440292 C71.9488688,15.4405146 71.5730646,15.1675229 71.1484979,15.1675229 C70.7239313,15.1675229 70.3481271,15.4405146 70.2171146,15.8440292 L69.0294833,19.5011187 L65.1844917,19.5011187 C64.759925,19.5011187 64.3841208,19.7741104 64.2531083,20.177625 C64.1220958,20.5811396 64.2655438,21.0229396 64.6088396,21.2725292 L67.7194563,23.5320542 L66.5308458,27.1886542 C66.3998333,27.5921687 66.5432813,28.0339687 66.8865771,28.2835583 C67.2288938,28.5331479 67.6936063,28.5331479 68.0378813,28.2835583 L71.1484979,26.0235437 L74.2591146,28.2835583 C74.5997667,28.5305042 75.0635,28.5351062 75.4104188,28.2835583 C75.7537146,28.0339687 75.8971625,27.5921687 75.76615,27.1886542 L74.5785188,23.5320542 L77.6881563,21.2725292 C78.0314521,21.0229396 78.1749,20.5811396 78.0438875,20.177625 Z M72.4958313,23.4608687 L72.9729792,24.92815 L71.72415,24.0211479 C71.5520125,23.8964021 71.3503042,23.834225 71.1484979,23.834225 C70.9466917,23.834225 70.7449833,23.8964021 70.5728458,24.0211479 L69.3249958,24.9276604 L69.8021438,23.4608687 C69.9331563,23.0573542 69.7897083,22.6155542 69.4464125,22.3659646 L68.1985625,21.4594521 L69.7409458,21.4594521 C70.1655125,21.4594521 70.5413167,21.1864604 70.6723292,20.7829458 L71.1484979,19.3156646 L71.6256458,20.7829458 C71.7566583,21.1864604 72.1324625,21.4594521 72.5570292,21.4594521 L74.0994125,21.4594521 L72.8515625,22.3659646 C72.5082667,22.6155542 72.3649167,23.0573542 72.4958313,23.4608687 Z" id="Shape" fill="#0B3766" fill-rule="nonzero"></path>
        <path d="M37.1531042,28.2835583 C37.4954208,28.5331479 37.9601333,28.5331479 38.3044083,28.2835583 L41.415025,26.0235437 L44.5256417,28.2835583 C44.8720708,28.5347146 45.3376646,28.5308958 45.6769458,28.2835583 C46.0202417,28.0339687 46.1636896,27.5921687 46.0326771,27.1886542 L44.8440667,23.5320542 L47.9546833,21.2725292 C48.2979792,21.0229396 48.4414271,20.5811396 48.3104146,20.177625 C48.1794021,19.7741104 47.8035979,19.5011187 47.3790313,19.5011187 L43.5340396,19.5011187 L42.3464083,15.8440292 C42.2153958,15.4405146 41.8395917,15.1675229 41.415025,15.1675229 C40.9904583,15.1675229 40.6146542,15.4405146 40.4836417,15.8440292 L39.2960104,19.5011187 L35.4510188,19.5011187 C35.0264521,19.5011187 34.6506479,19.7741104 34.5196354,20.177625 C34.3886229,20.5811396 34.5320708,21.0229396 34.8753667,21.2725292 L37.9859833,23.5320542 L36.7973729,27.1886542 C36.6663604,27.5921687 36.8098083,28.0339687 37.1531042,28.2835583 Z M40.0074729,21.4594521 C40.4320396,21.4594521 40.8078438,21.1864604 40.9388563,20.7829458 L41.415025,19.3165458 L41.8911938,20.7829458 C42.0222063,21.1864604 42.3980104,21.4594521 42.8225771,21.4594521 L44.3649604,21.4594521 L43.1171104,22.3659646 C42.7738146,22.6155542 42.6303667,23.0573542 42.7613792,23.4608687 L43.2385271,24.9276604 L41.9906771,24.0211479 C41.8185396,23.8964021 41.6168313,23.834225 41.415025,23.834225 C41.2132188,23.834225 41.0115104,23.8964021 40.8393729,24.0211479 L39.5915229,24.9276604 L40.0686708,23.4608687 C40.1996833,23.0573542 40.0562354,22.6155542 39.7129396,22.3659646 L38.4650896,21.4594521 L40.0074729,21.4594521 Z" id="Shape" fill="#0B3766" fill-rule="nonzero"></path>
        <rect id="Rectangle" fill="#0B3766" fill-rule="nonzero" x="92.9264375" y="26.9367146" width="1.78335625" height="1.95833333"></rect>
        <rect id="Rectangle" fill="#0B3766" fill-rule="nonzero" x="85.0931042" y="26.9367146" width="1.95833333" height="1.95833333"></rect>
        <rect id="Rectangle" fill="#0B3766" fill-rule="nonzero" x="89.0097708" y="26.9367146" width="1.95833333" height="1.95833333"></rect>
        <rect id="Rectangle" fill="#0B3766" fill-rule="nonzero" x="25.8104375" y="24.9258" width="1.95833333" height="1.95833333"></rect>
        <rect id="Rectangle" fill="#0B3766" fill-rule="nonzero" x="29.7271042" y="24.9258" width="1.78335625" height="1.95833333"></rect>
        <rect id="Rectangle" fill="#0B3766" fill-rule="nonzero" x="21.8937708" y="24.9258" width="1.95833333" height="1.95833333"></rect>
        <rect id="Rectangle" fill="#0B3766" fill-rule="nonzero" x="22.9848563" y="7" width="1.95833333" height="1.95833333"></rect>
        <rect id="Rectangle" fill="#0B3766" fill-rule="nonzero" x="19.0681896" y="7" width="1.95833333" height="1.95833333"></rect>
        <rect id="Rectangle" fill="#0B3766" fill-rule="nonzero" x="26.9015229" y="7" width="1.78335625" height="1.95833333"></rect>
        <rect id="Rectangle" fill="#0B3766" fill-rule="nonzero" x="87.45975" y="7" width="1.95833333" height="1.95833333"></rect>
        <rect id="Rectangle" fill="#0B3766" fill-rule="nonzero" x="83.5430833" y="7" width="1.95833333" height="1.95833333"></rect>
        <rect id="Rectangle" fill="#0B3766" fill-rule="nonzero" x="91.3764167" y="7" width="1.78335625" height="1.95833333"></rect>
        <polygon id="Path" fill="#0B3766" fill-rule="nonzero" points="90.39725 19.2831562 92.1365437 19.2831562 92.1365437 21.0229396 94.0948771 21.0229396 94.0948771 19.2831562 95.8352479 19.2831562 95.8352479 17.3248229 94.0948771 17.3248229 94.0948771 15.5849417 92.1365437 15.5849417 92.1365437 17.3248229 90.39725 17.3248229"></polygon>
        <polygon id="Path" fill="#0B3766" fill-rule="nonzero" points="16.6987042 19.9046333 16.6987042 18.16485 18.4379979 18.16485 18.4379979 16.2065167 16.6987042 16.2065167 16.6987042 14.4661458 14.7403708 14.4661458 14.7403708 16.2065167 13 16.2065167 13 18.16485 14.7403708 18.16485 14.7403708 19.9046333"></polygon>
    </g>
</svg>