<?xml version="1.0" encoding="UTF-8"?>
<svg width="114px" height="82px" viewBox="0 0 114 82" version="1.1" xmlns="http://www.w3.org/2000/svg" xmlns:xlink="http://www.w3.org/1999/xlink">
    <!-- Generator: Sketch 58 (84663) - https://sketch.com -->
    <title>LABOUR COST</title>
    <desc>Created with Sketch.</desc>
    <g id="LABOUR-COST" stroke="none" stroke-width="1" fill="none" fill-rule="evenodd">
        <g id="noun_cost_2344962" transform="translate(19.000000, 0.000000)" fill="#0B3766" fill-rule="nonzero">
            <g id="Group">
                <path d="M63.2000393,46.6666667 L63.2000393,28 C63.2184437,19.2293662 56.7470344,11.8351649 48.14655,10.8 L52.535,1.92933333 C52.7395351,1.51485491 52.7169143,1.02256476 52.4752546,0.629111411 C52.2335948,0.235658065 51.8075508,-0.00253615702 51.35,-2.00518149e-05 L27.65,-2.00518149e-05 C27.1936196,-2.00518149e-05 26.7696769,0.238909793 26.5296067,0.631958741 C26.2895365,1.02500769 26.2675812,1.51591784 26.4715833,1.92933333 L30.8547667,10.8 C22.2681455,11.862338 15.8106121,19.2400396 15.8,28 L15.8,52 L18.4333333,52 L18.4333333,28 C18.4427653,19.9037833 24.9216526,13.3428847 32.9166667,13.3333333 L46.0833333,13.3333333 C49.9262668,13.3276605 53.613415,14.8710724 56.3307822,17.6228366 C58.4497952,19.7686726 59.8432016,22.5116913 60.3514476,25.4610148 C60.4949631,26.293827 60.5679002,27.143089 60.5666667,28 L60.5666667,46.6666667 L63.2000393,46.6666667 Z M45.2696333,10.6666667 L33.7303667,10.6666667 L29.7803667,2.66666667 L49.2196333,2.66666667 L45.2696333,10.6666667 Z" id="Shape" stroke="#073668"></path>
                <path d="M28.3083333,19.9186667 C29.0291725,19.4945503 29.803994,19.172444 30.6111833,18.9613333 L29.95285,16.38 C28.9145368,16.6527222 27.9175211,17.0667134 26.9890333,17.6106667 L28.3083333,19.9186667 Z" id="Path"></path>
                <path d="M21.0666188,33.3333333 L23.7,33.3333333 L23.7,28 C23.6933522,25.4758194 24.7044071,23.0582548 26.4992333,21.3066667 L24.6651167,19.3946667 C22.357325,21.6463936 21.0575272,24.75473 21.0666188,28 L21.0666188,33.3333333 Z" id="Path"></path>
                <path d="M26.1081833,77.876 C28.6240634,79.2686648 31.4451078,79.9990145 34.3123333,80 L77.6833333,80 C78.4105083,80 78.9999939,79.4030463 78.9999939,78.6666667 L78.9999939,54.6666667 C78.9999939,53.930287 78.4105083,53.3333333 77.6833333,53.3333333 L67.6068833,53.3333333 L67.4567833,53.2146667 C65.9101927,51.99235 64.2009797,50.9972019 62.3797167,50.2586667 C55.9911139,47.6187247 48.7365762,48.2673426 42.9035833,52 L32.9166667,52 C30.8199888,51.9994462 28.8484363,53.010283 27.6078045,54.7219125 C26.3671727,56.4335419 26.0058465,58.6412456 26.63485,60.6666667 L10.3582167,52.408 C7.9411014,51.1787564 5.04239622,51.4596012 2.8993,53.1306667 C1.07777593,54.5127879 0.00393374413,56.6817321 -6.08411111e-06,58.9866667 L-6.08411111e-06,59.1333333 C-0.00342360039,61.8023034 1.43825281,64.2583772 3.75513333,65.5306667 L26.1081833,77.876 Z M68.4666667,56 L76.3666667,56 L76.3666667,77.3333333 L68.4666667,77.3333333 L68.4666667,56 Z M2.63332315,58.9866667 C2.64312109,57.4938575 3.35088237,56.0940519 4.54118333,55.2133333 C5.88172408,54.189116 7.68066539,54.0257152 9.1798,54.792 L29.6947833,65.192 C29.8773095,65.2851914 30.0789205,65.3336058 30.2833333,65.3333333 L50.0333333,65.3333333 L50.0333333,62.6666667 L32.9166667,62.6666667 C30.7351419,62.6666667 28.9666667,60.8758057 28.9666667,58.6666667 C28.9666667,56.4575277 30.7351419,54.6666667 32.9166667,54.6666667 L43.292,54.6666667 C43.5497949,54.6662405 43.8018871,54.5897945 44.0174833,54.4466667 C49.1766279,51.0063304 55.6796128,50.3647624 61.3974833,52.732 C62.9883609,53.3774536 64.481621,54.2464194 65.8333333,55.3133333 L65.8333333,77.3333333 L34.3123333,77.3333333 C31.8863822,77.3323821 29.4995285,76.7143612 27.3708667,75.536 L5.01123333,63.188 C3.54293019,62.3817526 2.6298054,60.8247415 2.63332315,59.1333333 L2.63332315,58.9866667 Z" id="Shape" stroke="#0B3766"></path>
                <rect id="Rectangle" x="71.1" y="70.6666667" width="2.63333333" height="2.66666667"></rect>
            </g>
        </g>
        <text id="€" font-family="Lato-Bold, Lato" font-size="26" font-weight="bold" letter-spacing="-0.04615385" fill="#073668">
            <tspan x="51" y="42">€</tspan>
        </text>
    </g>
</svg>