<?xml version="1.0" encoding="UTF-8"?>
<svg width="114px" height="82px" viewBox="0 0 114 82" version="1.1" xmlns="http://www.w3.org/2000/svg" xmlns:xlink="http://www.w3.org/1999/xlink">
    <!-- Generator: Sketch 58 (84663) - https://sketch.com -->
    <title>listino</title>
    <desc>Created with Sketch.</desc>
    <g id="listino" stroke="none" stroke-width="1" fill="none" fill-rule="evenodd">
        <path d="M89.1875,12.6 L36.586875,12.6 L35.2875,7.8 C34.296125,3.4896 31.5866875,3 30.311375,3 L21.8125,3 C19.156,3 17,5.1504 17,7.8 C17,10.4496 19.156,12.6 21.8125,12.6 L26.625,12.6 L36.25,47.1744 C37.15475,50.0256 39.2963125,51 41.0625,51 L79.5625,51 C81.554875,51 83.3210625,49.9872 84.375,47.2512 L92.6284375,22.2 C93.3599375,19.8768 94,18.6 94,17.4 C94,14.2128 91.256875,12.6 89.1875,12.6 Z M74.5,61 C69.256,61 65,65.256 65,70.5 C65,75.744 69.256,80 74.5,80 C79.744,80 84,75.744 84,70.5 C84,65.256 79.744,61 74.5,61 Z M45.5,61 C40.256,61 36,65.256 36,70.5 C36,75.744 40.256,80 45.5,80 C50.744,80 55,75.744 55,70.5 C55,65.256 50.744,61 45.5,61 Z" id="Stroke-1" stroke="#0078C1" stroke-width="2"></path>
    </g>
</svg>