<?xml version="1.0" encoding="UTF-8"?>
<svg width="114px" height="82px" viewBox="0 0 114 82" version="1.1" xmlns="http://www.w3.org/2000/svg" xmlns:xlink="http://www.w3.org/1999/xlink">
    <!-- Generator: Sketch 58 (84663) - https://sketch.com -->
    <title>servizi</title>
    <desc>Created with Sketch.</desc>
    <g id="servizi" stroke="none" stroke-width="1" fill="none" fill-rule="evenodd">
        <g id="Group-17" transform="translate(21.000000, 3.000000)" stroke="#0078C1" stroke-width="4">
            <path d="M8.06293716,38 C8.06293716,38 7.99315992,35.5093875 8.48197983,33.9437714 L0.310458159,27.4682176 C0.310458159,27.4682176 -0.388072699,26.7565037 0.310458159,25.5467445 L7.71367173,12.5956369 C7.71367173,12.5956369 8.62172392,11.1724022 10.8566814,12.1686858 L18.6091604,15.7266761 C18.6091604,15.7266761 21.9616913,12.8091125 25.6632981,11.8128289 L26.990393,1.7790917 C26.990393,1.7790917 26.990393,0 29.5744262,0 L36,0" id="Stroke-1"></path>
            <path d="M22,38 C22,38 21.9279176,24.1421917 36,24" id="Stroke-3"></path>
            <path d="M63.9370628,38 C63.9370628,38 64.0068401,35.5093875 63.5180202,33.9437714 L71.6895418,27.4682176 C71.6895418,27.4682176 72.3880727,26.7565037 71.6895418,25.5467445 L64.2863283,12.5956369 C64.2863283,12.5956369 63.3782761,11.1724022 61.1433186,12.1686858 L53.3908396,15.7266761 C53.3908396,15.7266761 50.0383087,12.8091125 46.3367019,11.8128289 L45.009607,1.7790917 C45.009607,1.7790917 45.009607,0 42.4255738,0 L36,0" id="Stroke-5"></path>
            <path d="M50,38 C50,38 50.0720824,24.1421917 36,24" id="Stroke-7"></path>
            <path d="M63.9370628,38 C63.9370628,38 64.0068401,40.4906251 63.5180202,42.0562492 L71.6895418,48.5318359 C71.6895418,48.5318359 72.3880727,49.2433603 71.6895418,50.4531256 L64.2863283,63.4044922 C64.2863283,63.4044922 63.3782761,64.8277342 61.1433186,63.8314455 L53.3908396,60.2734372 C53.3908396,60.2734372 50.0383087,63.1910156 46.3367019,64.1873043 L45.009607,74.2210924 C45.009607,74.2210924 45.009607,76 42.4255738,76 L36,76" id="Stroke-9"></path>
            <path d="M50,38 C50,38 50.0720824,51.8578083 36,52" id="Stroke-11"></path>
            <path d="M8.06293716,38 C8.06293716,38 7.99315992,40.4906251 8.48197983,42.0562492 L0.310458159,48.5318359 C0.310458159,48.5318359 -0.388072699,49.2433603 0.310458159,50.4531256 L7.71367173,63.4044922 C7.71367173,63.4044922 8.62172392,64.8277342 10.8566814,63.8314455 L18.6091604,60.2734372 C18.6091604,60.2734372 21.9616913,63.1910156 25.6632981,64.1873043 L26.990393,74.2210924 C26.990393,74.2210924 26.990393,76 29.5744262,76 L36,76" id="Stroke-13"></path>
            <path d="M22,38 C22,38 21.9279176,51.8578083 36,52" id="Stroke-15"></path>
        </g>
    </g>
</svg>