<?xml version="1.0" encoding="UTF-8"?>
<svg width="114px" height="82px" viewBox="0 0 114 82" version="1.1" xmlns="http://www.w3.org/2000/svg" xmlns:xlink="http://www.w3.org/1999/xlink">
    <!-- Generator: Sketch 58 (84663) - https://sketch.com -->
    <title>UDS</title>
    <desc>Created with Sketch.</desc>
    <g id="UDS" stroke="none" stroke-width="1" fill="none" fill-rule="evenodd">
        <g id="noun_cost_2344962" transform="translate(19.000000, 48.000000)" fill="#0B3766" fill-rule="nonzero">
            <g id="Group">
                <path d="M26.1081833,29.876 C28.6240634,31.2686648 31.4451078,31.9990145 34.3123333,32 L77.6833333,32 C78.4105083,32 78.9999939,31.4030463 78.9999939,30.6666667 L78.9999939,6.66666667 C78.9999939,5.930287 78.4105083,5.33333333 77.6833333,5.33333333 L67.6068833,5.33333333 L67.4567833,5.21466667 C65.9101927,3.99235003 64.2009797,2.99720188 62.3797167,2.25866667 C55.9911139,-0.381275296 48.7365762,0.267342578 42.9035833,4 L32.9166667,4 C30.8199888,3.99944624 28.8484363,5.01028302 27.6078045,6.72191248 C26.3671727,8.43354193 26.0058465,10.6412456 26.63485,12.6666667 L10.3582167,4.408 C7.9411014,3.17875644 5.04239622,3.4596012 2.8993,5.13066667 C1.07777593,6.51278789 0.00393374413,8.68173207 -6.08411028e-06,10.9866667 L-6.08411028e-06,11.1333333 C-0.00342360039,13.8023034 1.43825281,16.2583772 3.75513333,17.5306667 L26.1081833,29.876 Z M68.4666667,8 L76.3666667,8 L76.3666667,29.3333333 L68.4666667,29.3333333 L68.4666667,8 Z M2.63332315,10.9866667 C2.64312109,9.49385754 3.35088237,8.09405188 4.54118333,7.21333333 C5.88172408,6.18911602 7.68066539,6.02571516 9.1798,6.792 L29.6947833,17.192 C29.8773095,17.2851914 30.0789205,17.3336058 30.2833333,17.3333333 L50.0333333,17.3333333 L50.0333333,14.6666667 L32.9166667,14.6666667 C30.7351419,14.6666667 28.9666667,12.8758057 28.9666667,10.6666667 C28.9666667,8.45752767 30.7351419,6.66666667 32.9166667,6.66666667 L43.292,6.66666667 C43.5497949,6.66624045 43.8018871,6.58979447 44.0174833,6.44666667 C49.1766279,3.00633036 55.6796128,2.36476238 61.3974833,4.732 C62.9883609,5.37745359 64.481621,6.2464194 65.8333333,7.31333333 L65.8333333,29.3333333 L34.3123333,29.3333333 C31.8863822,29.3323821 29.4995285,28.7143612 27.3708667,27.536 L5.01123333,15.188 C3.54293019,14.3817526 2.6298054,12.8247415 2.63332315,11.1333333 L2.63332315,10.9866667 Z" id="Shape" stroke="#0B3766"></path>
                <rect id="Rectangle" x="71.1" y="22.6666667" width="2.63333333" height="2.66666667"></rect>
            </g>
        </g>
        <g id="Group-11" transform="translate(30.000000, 4.000000)" stroke="#0B3766" stroke-linecap="round">
            <path d="M0,49.1396908 L0,6.43478261 C0,2.88117391 2.84452941,0 6.35294118,0 L36.4865294,0 L36.4976471,0 L36.5294118,0 C37.0376471,0 37.4712353,0.259 37.7618824,0.635434783 L53.3726471,16.4473043 C53.7458824,16.7416957 54,17.1808696 54,17.6956522 L54,17.7294348 L54,17.7374783 L54,20.1491078" id="Stroke-1" stroke-width="3"></path>
            <polyline id="Stroke-3" stroke-width="3" stroke-linejoin="round" points="37 0 37 17 54 17"></polyline>
            <path d="M10,25 L43,25" id="Stroke-5" stroke-width="2"></path>
            <path d="M10,35 L43,35" id="Stroke-7" stroke-width="2"></path>
            <path d="M10,45 L25,45" id="Stroke-9" stroke-width="2"></path>
        </g>
        <g id="Group-14" transform="translate(73.000000, 25.000000)">
            <g id="Group">
                <path d="M26,13 C26,20.1799112 20.1801861,26 13.0006142,26 C5.82104219,26 0,20.1799112 0,13 C0,5.82008882 5.82104219,0 13.0006142,0 C20.1801861,0 26,5.82008882 26,13 Z" id="Stroke-12" stroke="#0B3766" stroke-width="2" stroke-linecap="round"></path>
                <text id="€" font-family="TIMSans-Medium, TIM Sans" font-size="17" font-weight="400" fill="#0B3766">
                    <tspan x="6" y="19">€</tspan>
                </text>
            </g>
        </g>
    </g>
</svg>