<?xml version="1.0" encoding="UTF-8"?>
<svg width="114px" height="82px" viewBox="0 0 114 82" version="1.1" xmlns="http://www.w3.org/2000/svg" xmlns:xlink="http://www.w3.org/1999/xlink">
    <!-- Generator: Sketch 58 (84663) - https://sketch.com -->
    <title>Workforce</title>
    <desc>Created with Sketch.</desc>
    <g id="Workforce" stroke="none" stroke-width="1" fill="none" fill-rule="evenodd">
        <g id="noun_clock_2485001" transform="translate(65.000000, 0.000000)" fill="#0B3766" fill-rule="nonzero">
            <g id="Group" transform="translate(0.861386, 0.517834)">
                <path d="M24.7326733,0.294030891 C12.2066455,0.294030891 2,10.5006764 2,23.0267366 C2,35.5526832 12.2066455,45.7594099 24.7326733,45.7594099 C37.2587822,45.7594099 47.4653465,35.5526832 47.4653465,23.0267366 C47.4653465,10.5006764 37.258701,0.294030891 24.7326733,0.294030891 Z M24.7326733,5.16531802 C34.626095,5.16531802 42.5940594,13.1333636 42.5940594,23.0267366 C42.5940594,32.919996 34.626095,40.8881228 24.7326733,40.8881228 C14.8393327,40.8881228 6.87128713,32.919996 6.87128713,23.0267366 C6.87128713,13.1333636 14.8392515,5.16531802 24.7326733,5.16531802 Z M24.7326733,9.22472396 C23.3875485,9.22472396 22.2970297,10.3152428 22.2970297,11.6603675 L22.2970297,23.0267366 C22.2970297,23.9275188 22.7878931,24.7111465 23.5148515,25.1325941 L31.9634495,30.0038812 C33.1283366,30.6763624 34.6145663,30.2808139 35.2871287,29.1158455 C35.9596911,27.9509584 35.5639802,26.4648099 34.3990931,25.7921663 L27.1683168,21.6312752 L27.1683168,11.6603675 C27.1683168,10.3152428 26.0778792,9.22472396 24.7326733,9.22472396 Z" id="Shape"></path>
            </g>
        </g>
        <path d="M49,14 C58.3886709,14 66,21.6107285 66,31.0005883 C66,40.3892715 58.3886709,48 49,48 C39.6113291,48 32,40.3892715 32,31.0005883 C32,21.6107285 39.6113291,14 49,14 Z" id="Stroke-3" stroke="#0B3766" stroke-width="4"></path>
        <path d="M65.6738766,48 L83.7561877,49.9750836 C87.7563538,49.9750836 91,53.2920085 91,57.3819508 L91,64.6611972 C91.0106261,73.1218475 84.3117664,79.9890611 76.0383732,80 L76.0182778,80 L20.9616181,80 C12.6929532,79.9939228 5.9940935,73.1364327 6,64.6818596 L6,64.6709207 L6,57.4026132 C6,53.3114555 9.24245533,49.9945305 13.2438035,49.9945305 L31.2776493,48.019447" id="Stroke-5" stroke="#0B3766" stroke-width="4" stroke-linecap="round"></path>
    </g>
</svg>